<?xml version="1.0" encoding="UTF-8"?>
<!DOCTYPE svg PUBLIC "-//W3C//DTD SVG 1.1//EN" "http://www.w3.org/Graphics/SVG/1.1/DTD/svg11.dtd">
<!-- Creator: CorelDRAW X7 -->
<svg xmlns="http://www.w3.org/2000/svg" xml:space="preserve" width="297mm" height="210mm" version="1.1" style="shape-rendering:geometricPrecision; text-rendering:geometricPrecision; image-rendering:optimizeQuality; fill-rule:evenodd; clip-rule:evenodd"
viewBox="0 0 29700 21000"
 xmlns:xlink="http://www.w3.org/1999/xlink">
 <defs>
  <style type="text/css">
   <![CDATA[
    .fil0 {fill:#C5C6C6}
    .fil1 {fill:#C5C6C6;fill-rule:nonzero}
   ]]>
  </style>
 </defs>
 <g id="Layer_x0020_1">
  <metadata id="CorelCorpID_0Corel-Layer"/>
  <g id="_1332357066992">
   <path class="fil0" d="M5477 9313c555,261 607,-391 257,-526 -347,-133 -863,360 -613,930 352,803 1713,768 2578,-516 109,77 544,141 624,-199 -216,11 -390,18 -482,-155 229,-444 457,-889 685,-1333 637,661 295,1856 852,2191 350,211 829,64 1190,-299 647,805 1696,319 2015,-329 251,940 1094,803 1560,308 589,-626 768,-1577 995,-2379 504,3 600,115 559,367 -114,724 -512,1680 -212,2144 278,427 949,354 1513,-222 373,468 938,259 1506,-364 -31,206 -63,412 -95,618 -909,361 -2140,1050 -2583,2177 -125,317 -239,882 39,1268 306,425 1056,582 1850,-91 856,-724 1144,-2240 1357,-3198 307,-139 704,-328 984,-622 316,796 1350,1051 2070,102 329,1086 1459,498 1776,-204 131,-291 120,-283 185,-478 75,-222 58,-332 -125,-404 -211,-82 -263,38 -309,145 -132,305 -217,748 -582,935 -226,115 -413,-55 -390,-373 19,-258 138,-665 204,-981 149,-714 155,-712 217,-918 98,-325 -194,-388 -366,-330 -169,56 -238,258 -342,420 -214,-318 -466,-545 -775,-596 -296,-48 -628,70 -928,335 -511,454 -735,1231 -753,1909 -173,272 -534,436 -759,564 97,-821 222,-1647 288,-2471 12,-144 13,-341 -191,-389 -273,-63 -310,134 -353,281 -159,547 -225,1117 -406,1659 -34,100 -144,233 -278,364 -142,140 -289,287 -458,277 -187,-12 -171,-421 -134,-645 75,-463 244,-993 325,-1475 28,-165 62,-396 -213,-452 -184,-37 -318,45 -370,261 -182,759 -294,1372 -409,2140 -180,322 -633,622 -860,431 -194,-162 -109,-458 -75,-665 66,-402 220,-862 275,-1153 128,-674 -145,-606 -548,-730 -205,-63 -366,-96 -550,-155 86,-506 -504,-738 -783,-299 -125,197 -40,523 303,716 -224,646 -424,1493 -757,1926 -175,228 -372,471 -556,463 -261,-10 -283,-279 -269,-421 70,-722 330,-1334 436,-2027 16,-104 12,-215 -80,-269 -67,-39 -134,-81 -231,-31 -133,68 -302,277 -430,611 -347,-723 -1084,-966 -1722,-448 -652,528 -1001,1554 -747,2403 -211,285 -562,301 -683,82 -76,-138 -28,-390 -17,-614 50,-1044 449,-2163 448,-3103 0,-207 -93,-633 -430,-649 -470,-23 -644,368 -708,525 -212,514 -410,918 -631,1416 -620,-379 -1384,-255 -1644,568 -178,562 -1,1276 586,1668 -238,302 -503,651 -927,852 -383,181 -1107,42 -903,-543zm6511 -2422c-460,0 -927,552 -1043,1234 -116,682 67,1247 623,1235 556,-12 927,-553 1043,-1235 116,-682 -163,-1234 -623,-1234zm-3228 171c253,-591 506,-1183 759,-1775 191,120 43,712 -29,1050 -98,460 -193,917 -291,1383 -170,-305 -275,-448 -439,-658zm-1248 1603c272,-526 454,-932 663,-1447 -223,-225 -713,-288 -929,69 -243,400 -110,1008 266,1378zm10793 1424c-626,257 -1484,702 -1877,1417 -98,177 -198,383 -227,571 -92,586 186,1089 791,759 334,-181 621,-635 755,-900 310,-612 460,-1345 558,-1847zm3298 -3213c-438,-20 -916,568 -1027,1250 -110,682 143,1218 603,1199 509,-21 893,-520 1003,-1202 111,-682 0,-1220 -579,-1247z"/>
   <path class="fil0" d="M16604 6595c733,-804 2011,-1690 2720,-1118 229,-358 -71,-656 -461,-716 -340,-53 -743,98 -1017,234 -520,257 -960,689 -1278,1103 -512,-602 -1127,-1109 -1859,-1213 -275,-40 -454,54 -518,180 -73,143 13,316 96,314 912,-14 1610,488 2317,1216z"/>
   <path class="fil0" d="M16474 6957c127,107 138,272 113,412 -67,374 -204,770 -287,1160 -41,190 -77,331 -70,589 -154,-86 -117,-289 -88,-428 103,-499 239,-924 329,-1393 21,-111 34,-218 3,-340z"/>
   <path class="fil0" d="M15686 9850c513,159 978,-71 1315,-385 32,29 79,77 111,106 -140,156 -425,349 -667,414 -248,66 -560,21 -759,-135z"/>
   <path class="fil0" d="M18305 9300c-11,55 -22,110 -33,165 -414,270 -756,411 -1070,155 404,133 774,-52 1103,-320z"/>
   <path class="fil0" d="M18110 6499c11,155 -3,257 -27,383 -93,509 -222,963 -322,1518 -25,137 -62,352 95,407 -15,-174 4,-319 34,-482 84,-460 224,-923 307,-1383 28,-157 60,-310 -87,-443z"/>
   <path class="fil0" d="M19565 6483c126,104 155,256 137,394 -88,686 -159,1363 -239,2045 -50,32 -100,64 -149,96 91,-724 203,-1445 275,-2171 12,-121 23,-231 -24,-364z"/>
   <path class="fil0" d="M21974 7137c-124,-108 -394,-215 -598,-101 -446,249 -686,907 -699,1441 -8,311 111,497 221,615 -73,-188 -138,-334 -120,-609 32,-475 256,-1083 604,-1292 187,-112 392,-90 592,-54z"/>
   <path class="fil0" d="M23203 6617c0,0 164,84 128,377 -36,293 -391,1665 -391,1665 -47,183 -20,369 -24,442 -64,-28 -168,-76 -108,-394 82,-430 390,-1672 401,-1716 12,-48 42,-245 -6,-374z"/>
   <path class="fil0" d="M22070 6514c81,62 209,138 314,343 -25,-137 -201,-313 -314,-343z"/>
   <path class="fil0" d="M24253 8202c0,0 155,126 72,413 -84,287 -383,891 -652,1088 -269,197 -777,568 -1298,66 0,0 287,275 760,89 472,-185 771,-604 920,-950 150,-347 222,-526 198,-706z"/>
   <path class="fil0" d="M22097 9425l51 134c-559,544 -1201,608 -1677,198 0,0 807,508 1626,-332z"/>
   <path class="fil0" d="M16699 6684c396,-406 774,-702 1225,-957 386,-217 969,-492 1426,-114 206,-112 241,-424 66,-699 209,204 247,311 233,496 -8,110 -75,215 -149,296 -24,26 -65,16 -105,-18 -72,-62 -125,-117 -220,-139 -239,-56 -505,4 -768,92 -211,70 -420,185 -566,280 -391,254 -709,504 -1065,876 -26,-38 -51,-76 -77,-113z"/>
   <path class="fil0" d="M20021 9283c29,50 58,99 87,149 -266,211 -538,350 -825,496 -38,183 -76,365 -113,548 1140,42 2198,132 3279,240 641,65 1265,112 1889,277 389,102 340,358 221,454 -109,88 -197,166 -259,286 -177,342 -228,921 -186,1430 2,444 390,918 6,1154 -399,245 -884,310 -1339,402 39,702 -667,796 -1178,632 -239,-77 -451,-298 -532,-532 -4,-323 -8,-646 -12,-969 -1166,-70 -2305,-111 -3498,-131 208,223 346,493 214,973 200,-181 459,-392 737,-538 396,-207 845,-259 1237,-9 90,57 167,131 213,224 147,292 -7,637 -330,727 -239,67 -521,-5 -543,-376 -8,-137 177,-315 362,-194 93,61 116,238 -36,299 16,162 211,114 305,24 160,-154 151,-436 -62,-538 -527,-253 -1129,-39 -1690,448 273,-31 644,-62 693,293 8,375 -316,373 -496,281 181,-22 261,-100 274,-171 22,-121 -117,-229 -311,-237 -200,-9 -374,78 -707,230 -287,131 -751,31 -854,-340 -56,-205 18,-538 307,-568 254,-26 334,178 299,309 -31,113 -198,245 -341,90 -101,286 288,428 505,299 296,-177 508,-756 120,-1026 -427,-297 -1137,-143 -1561,33 -355,148 -715,422 -912,709 89,240 356,369 597,364 114,-2 259,-93 315,-211 63,-132 -2,-259 -157,-250 -84,4 -164,62 -103,147 -95,36 -139,-14 -144,-81 -23,-264 386,-284 529,-189 159,104 165,255 133,372 -73,270 -369,394 -638,372 -193,-16 -344,-105 -481,-223 171,316 530,631 840,530 -113,160 -312,168 -486,100 -189,-73 -337,-257 -431,-433 -54,-102 -97,-234 -141,-355 -47,129 -94,243 -145,342 -66,129 -183,322 -355,415 -197,105 -452,101 -591,-81 351,150 641,-153 807,-449 -440,309 -897,119 -1034,-131 -80,-147 -36,-403 171,-487 119,-49 316,-30 421,41 121,82 145,292 -66,266 92,-151 -193,-214 -275,-89 -92,141 11,386 323,388 237,2 489,-119 604,-376 -425,-423 -910,-704 -1382,-837 -467,-133 -1323,-106 -1351,550 -11,265 175,581 485,633 195,34 473,-98 364,-322 -100,56 -386,73 -347,-216 30,-213 417,-326 574,-18 89,175 67,359 -17,501 -178,302 -527,302 -828,213 -189,-57 -379,-193 -572,-217 -469,-61 -521,404 -149,364 -184,226 -512,23 -490,-218 41,-455 564,-357 768,-266 -325,-287 -899,-579 -1342,-601 -498,-24 -621,259 -556,496 53,193 367,311 442,90 -204,-19 -217,-242 -48,-299 172,-57 356,67 301,327 -46,216 -298,397 -605,235 -251,-132 -429,-538 -144,-837 291,-306 804,-324 1262,-108 295,140 556,317 807,556 -168,-461 -33,-677 197,-926 -1151,16 -2260,47 -3426,119 2,285 4,570 6,855 -78,642 -894,806 -1363,616 -208,-84 -383,-311 -323,-592 -713,-151 -1478,-228 -1554,-669 31,-306 197,-582 227,-891 56,-572 67,-1287 -293,-1614 -168,-153 -190,-428 418,-539 3456,-625 7125,-558 10589,-609 -221,185 -354,376 -491,601 -1159,-21 -2311,3 -3451,36 -2287,66 -4540,220 -6784,499 47,78 67,137 95,215 1424,-154 2834,-271 4273,-340 1900,-92 3843,-142 5730,-144 -44,58 -69,123 -84,185 -3256,-72 -6659,137 -9862,502 11,45 21,91 30,139 100,10 209,13 308,23 -95,21 -197,46 -292,68 8,53 16,105 22,159 94,-3 181,-5 275,-8 -91,24 -178,46 -269,69 6,61 10,122 13,186 122,-6 222,-10 344,-16 -119,34 -222,63 -341,97 1,67 1,126 1,187 113,-2 210,-5 323,-7 -114,31 -212,57 -326,88 -2,58 -7,119 -11,178 132,-1 259,-1 391,-2 -136,35 -264,67 -400,101 -5,62 -16,127 -24,186 1419,-197 2799,-244 4203,-305 1908,-82 3781,-122 5727,-125 27,69 76,137 162,206 -2305,1 -4647,65 -6968,165 -1087,46 -2187,141 -3253,275 -3,117 -16,230 -9,352 83,131 208,307 422,362 -98,-80 -186,-171 -254,-272 8,-77 16,-153 24,-230 1097,-109 2176,-170 3268,-238 720,-44 1446,-53 2166,-97 1656,-18 3312,-36 4969,-54 -72,-34 -125,-72 -162,-113 528,246 1175,70 1584,-275 606,-511 919,-1023 1262,-2230 95,-334 172,-675 233,-1017 297,-168 594,-334 850,-542zm-2685 4197c147,-72 277,-148 415,-245 887,9 2034,45 3106,99 1545,78 2935,194 3169,326 1,110 27,234 3,331 -26,103 -270,300 -428,347 94,-67 264,-211 266,-288 1,-64 -1,-98 -9,-176 -5,-42 -64,-63 -94,-71 -269,-69 -361,-60 -1212,-131 -851,-72 -3478,-128 -5216,-192zm1511 -1941c1715,46 3424,145 5164,370 -10,39 -20,79 -30,119 -135,-1 -270,-3 -405,-4 129,30 258,61 387,92 -8,52 -16,104 -24,156 -107,1 -213,2 -320,3 104,22 208,45 312,67 -6,65 -11,130 -17,194 -99,0 -199,-1 -299,-1 98,23 197,47 296,70 -2,66 -4,131 -6,197 -112,-3 -223,-5 -335,-8 112,36 223,71 335,106 1,63 2,126 3,189 -126,-7 -253,-14 -380,-21 128,30 255,60 383,90 4,68 8,136 12,205 -2060,-258 -3989,-261 -5948,-343 374,-440 677,-903 872,-1481zm146 -438c1764,70 3522,169 5221,406 -54,66 -100,128 -136,213 -1744,-187 -3401,-302 -5160,-382 28,-89 50,-158 75,-237zm-13063 2873c393,313 1325,337 2034,605 199,76 438,285 220,453 -253,195 -570,228 -843,126 -150,-56 -247,-297 -144,-389 73,-64 123,-66 198,-54 14,28 28,56 41,84 -118,-2 -153,59 -146,126 19,186 223,205 371,197 136,-8 316,-44 409,-167 163,-217 -358,-375 -681,-461 -499,-132 -1308,-143 -1459,-520zm663 48c432,63 864,94 1274,227 227,74 434,169 607,383 0,58 0,115 0,173 -101,-181 -246,-302 -419,-374 -467,-194 -958,-283 -1462,-409zm174 -133c341,-16 635,4 934,51 0,0 118,16 69,77 -35,44 -118,0 -171,-12 -259,-59 -538,-83 -832,-116zm7004 -192c692,0 1383,0 2075,0 -460,207 -746,445 -1029,801 -292,-350 -634,-579 -1046,-801zm10015 277c-394,313 -1325,337 -2034,605 -199,76 -438,285 -220,453 252,195 570,228 843,126 150,-56 247,-297 144,-389 -73,-64 -123,-66 -198,-54 -14,28 -28,56 -42,84 118,-2 154,59 147,126 -19,186 -223,205 -371,197 -136,-8 -317,-44 -409,-167 -163,-217 357,-375 681,-461 499,-132 1308,-143 1459,-520zm-664 48c-432,63 -863,94 -1273,227 -228,74 -435,169 -607,383 0,58 0,115 0,173 101,-181 246,-302 419,-374 467,-194 958,-283 1461,-409zm-173 -133c-341,-16 -635,4 -934,51 0,0 -118,16 -69,77 34,44 118,0 170,-12 260,-59 538,-83 833,-116z"/>
   <path class="fil0" d="M14813 15180c93,257 211,433 442,628 -84,8 -167,16 -251,24 -25,160 -92,294 -191,418 -129,-143 -180,-266 -207,-412 -97,-9 -195,-18 -293,-27 199,-44 422,-371 500,-631z"/>
   <path class="fil1" d="M7040 12812c1,32 4,53 6,65 3,12 9,21 17,28 8,7 22,13 43,17 0,14 0,27 0,41 -104,7 -209,15 -312,22 0,-14 0,-27 0,-41 22,-7 37,-14 45,-21 6,-7 11,-16 14,-27 3,-12 2,-35 1,-70 -1,-41 -2,-82 -4,-123 -3,-41 -5,-82 -8,-123 -90,7 -181,15 -271,22 3,41 5,81 7,122 2,41 3,81 5,122 0,14 2,27 3,39 2,12 3,22 6,30 3,7 5,14 9,19 5,5 11,9 20,12 8,3 19,6 30,8 0,14 0,27 0,40 -105,7 -210,13 -314,19 0,-13 0,-26 0,-40 14,-5 25,-9 33,-15 9,-5 15,-11 20,-20 4,-8 6,-19 7,-32 1,-13 1,-29 0,-48 -3,-86 -8,-173 -13,-259 -4,-86 -8,-173 -12,-260 -1,-19 -2,-34 -4,-47 -1,-13 -4,-23 -9,-31 -4,-7 -10,-13 -18,-17 -9,-5 -21,-8 -35,-10 0,-14 -1,-27 -1,-40 104,-10 209,-21 315,-32 0,13 1,27 1,40 -22,9 -36,17 -44,25 -8,8 -14,18 -16,30 -3,13 -4,34 -3,65 2,68 6,136 10,204 90,-8 181,-16 272,-24 -3,-68 -8,-137 -11,-206 -1,-31 -3,-52 -6,-64 -3,-12 -8,-21 -16,-28 -8,-7 -23,-12 -44,-16 0,-14 -1,-27 -1,-41 104,-10 209,-21 314,-32 0,14 1,28 1,41 -18,7 -31,13 -39,20 -7,6 -13,14 -16,23 -4,9 -5,19 -6,30 -1,11 -1,27 0,49 4,90 6,178 11,267 5,89 10,178 13,267zm542 124c-119,10 -206,-20 -266,-87 -31,-34 -55,-76 -72,-128 -16,-52 -27,-114 -30,-186 -2,-46 -1,-90 3,-130 5,-41 15,-79 29,-113 27,-69 67,-124 122,-165 55,-39 121,-64 198,-71 121,-12 211,16 271,82 31,34 56,76 72,129 17,52 27,114 31,186 3,79 -3,149 -19,208 -15,58 -38,108 -70,147 -32,39 -71,70 -117,90 -46,21 -96,34 -152,38zm-179 -435c3,64 10,119 19,165 9,46 22,84 37,114 31,59 76,86 136,82 30,-3 56,-13 77,-33 21,-19 39,-45 51,-77 13,-33 21,-71 24,-114 4,-44 5,-91 3,-143 -3,-83 -14,-153 -28,-209 -15,-55 -36,-96 -62,-122 -26,-27 -58,-38 -99,-34 -57,6 -101,39 -127,100 -13,30 -23,68 -27,113 -4,45 -6,98 -4,158zm812 375c0,-14 0,-28 0,-42 17,-5 30,-10 40,-16 9,-5 17,-13 22,-22 5,-9 7,-21 7,-35 1,-14 2,-31 1,-51 -2,-106 -8,-212 -12,-318 -5,-105 -8,-211 -12,-317 -16,1 -33,3 -48,4 -24,2 -43,7 -55,14 -13,7 -24,17 -33,31 -8,13 -17,31 -23,53 -6,22 -11,43 -14,62 -27,3 -55,5 -82,8 -1,-37 -3,-74 -5,-111 -1,-38 -1,-75 -1,-112 236,-22 472,-42 709,-62 0,38 1,75 1,113 1,37 2,75 3,112 -27,2 -55,4 -83,6 -8,-28 -15,-49 -20,-62 -5,-13 -9,-25 -15,-34 -6,-9 -11,-17 -17,-22 -7,-6 -14,-11 -20,-14 -8,-4 -16,-5 -26,-7 -10,-1 -24,0 -41,1 -14,1 -29,2 -43,4 3,106 7,212 11,318 4,106 9,212 12,318 1,22 3,40 4,51 1,12 3,21 6,28 4,7 8,13 12,17 5,4 11,7 20,10 8,3 20,5 34,6 0,14 0,28 0,42 -112,9 -221,18 -332,27zm1187 -963c0,68 3,136 4,204 -28,1 -55,3 -82,5 -14,-40 -27,-66 -37,-80 -9,-14 -20,-25 -33,-32 -13,-7 -34,-10 -66,-8 -44,3 -89,6 -131,9 1,51 3,102 5,154 2,51 2,102 4,153 27,-2 54,-3 80,-5 18,-1 32,-4 42,-11 9,-6 18,-15 24,-28 6,-13 11,-32 16,-59 22,-2 45,-3 68,-4 2,43 3,86 5,130 1,43 4,87 4,130 -23,1 -45,3 -67,4 -7,-24 -13,-43 -21,-55 -7,-13 -16,-22 -26,-27 -9,-5 -24,-6 -42,-5 -27,2 -53,3 -80,5 3,57 5,114 7,171 1,58 2,115 3,172 43,-3 87,-6 131,-9 14,-1 26,-3 35,-5 9,-3 18,-7 26,-12 7,-5 15,-12 22,-20 6,-9 12,-18 17,-28 6,-10 11,-22 17,-38 5,-16 12,-38 18,-65 28,-2 54,-3 82,-5 -1,39 -2,78 -3,117 -1,39 -3,79 -4,118 -196,12 -393,25 -589,39 0,-14 0,-28 0,-42 15,-6 27,-11 35,-17 8,-5 15,-12 19,-21 4,-9 7,-21 7,-34 1,-14 1,-31 0,-51 -2,-92 -6,-184 -10,-276 -3,-92 -6,-184 -9,-276 0,-20 -1,-37 -3,-50 -1,-14 -4,-25 -9,-33 -4,-8 -10,-15 -18,-20 -9,-4 -21,-8 -37,-11 0,-14 -2,-28 -2,-42 199,-15 398,-29 598,-42zm431 -24c0,14 0,28 0,42 -14,5 -25,10 -34,16 -8,5 -14,12 -19,21 -4,9 -7,20 -8,33 -1,14 -2,31 -1,52 4,106 7,213 11,320 4,106 5,213 7,320 39,-2 78,-4 116,-6 24,-1 42,-6 56,-14 15,-8 26,-21 36,-37 10,-16 19,-38 26,-64 7,-26 11,-51 15,-74 27,-1 55,-2 82,-3 0,44 -3,87 -4,131 -1,43 -2,86 -4,130 -191,7 -382,16 -571,26 0,-14 -1,-28 -1,-42 15,-5 26,-11 34,-16 8,-6 15,-13 19,-22 4,-9 7,-21 8,-34 1,-14 1,-31 1,-51 -3,-92 -5,-185 -9,-277 -3,-92 -5,-184 -8,-276 -1,-20 -2,-37 -4,-51 -1,-14 -5,-24 -9,-33 -4,-8 -10,-15 -18,-20 -9,-5 -21,-8 -36,-12 -1,-14 -1,-28 -1,-42 105,-6 211,-12 316,-17zm817 659c1,65 2,130 3,195 -54,1 -109,1 -162,3 0,-66 -1,-130 -3,-196 54,-1 108,-2 162,-2zm709 191c-106,1 -210,2 -316,2 0,-14 0,-28 0,-43 16,-4 27,-9 35,-14 9,-5 15,-12 19,-21 5,-9 7,-20 8,-34 0,-13 1,-31 1,-51 -2,-94 -5,-187 -7,-280 -2,-93 -4,-187 -7,-280 -1,-21 -2,-38 -3,-51 -1,-15 -4,-26 -8,-34 -4,-9 -11,-16 -20,-21 -9,-6 -20,-10 -35,-14 0,-14 0,-29 0,-43 116,-2 233,-3 350,-5 48,-1 88,2 121,8 34,7 62,18 87,32 21,12 39,26 53,45 14,18 26,40 35,64 9,24 14,53 15,85 1,43 -5,80 -19,110 -13,31 -31,56 -54,77 -23,20 -53,40 -92,58 0,2 0,5 0,7 30,13 55,31 75,55 19,22 38,51 54,87 13,29 25,59 39,88 18,39 35,68 51,88 17,19 37,31 60,35 0,15 0,29 0,43 -77,2 -154,3 -231,4 -24,-34 -50,-86 -80,-154 -16,-37 -32,-74 -49,-111 -14,-32 -27,-56 -37,-70 -10,-13 -21,-23 -32,-28 -11,-5 -26,-7 -48,-7 -13,0 -25,0 -36,0 1,70 3,140 4,210 1,32 3,55 6,68 3,13 8,24 15,31 9,8 23,15 46,21 0,14 0,28 0,43zm-82 -810c1,60 3,120 4,181 2,60 3,120 5,180 19,0 38,0 59,-1 32,0 59,-5 79,-14 20,-10 37,-23 49,-40 11,-17 19,-37 23,-59 5,-23 6,-48 5,-75 -2,-59 -15,-103 -41,-132 -27,-29 -65,-43 -115,-43 -35,1 -57,2 -68,3zm1161 -100c0,69 1,138 2,207 -26,1 -54,2 -82,2 -13,-41 -26,-68 -36,-83 -9,-14 -20,-25 -33,-33 -13,-9 -34,-13 -65,-12 -44,1 -88,2 -131,3 0,52 1,104 2,156 2,52 3,104 4,156 27,0 53,-1 80,-1 17,-1 31,-3 41,-9 10,-6 18,-15 24,-28 6,-12 12,-32 18,-59 22,0 45,-1 68,-1 1,44 2,88 3,132 1,44 1,88 2,132 -23,1 -46,1 -68,2 -6,-25 -12,-44 -20,-58 -7,-12 -15,-22 -24,-27 -9,-6 -25,-8 -43,-8 -27,1 -53,1 -79,2 1,58 2,116 3,174 0,58 1,116 1,174 44,-1 87,-2 131,-3 15,0 27,-2 36,-4 9,-2 18,-6 26,-10 7,-5 14,-12 21,-20 7,-9 13,-18 18,-28 6,-9 11,-22 17,-38 5,-16 13,-37 19,-65 28,0 55,-1 82,-2 -1,40 -2,80 -4,119 -1,40 -3,80 -4,119 -198,5 -395,9 -591,13 0,-14 0,-29 0,-43 16,-5 26,-9 35,-15 9,-5 15,-12 19,-21 4,-9 7,-20 9,-34 1,-14 1,-31 1,-52 -1,-93 -3,-187 -5,-281 -2,-93 -4,-187 -6,-281 -1,-20 -3,-37 -4,-51 -1,-14 -4,-25 -8,-34 -4,-8 -10,-16 -19,-21 -9,-5 -21,-9 -38,-13 0,-15 0,-29 0,-44 199,-3 399,-8 598,-12zm202 665c10,51 28,89 51,114 23,25 58,37 103,36 24,-1 46,-6 65,-15 18,-9 33,-24 44,-43 11,-20 17,-44 16,-73 0,-27 -5,-50 -14,-70 -10,-19 -25,-38 -45,-55 -22,-17 -51,-35 -88,-54 -31,-16 -59,-33 -85,-51 -26,-17 -47,-37 -66,-58 -18,-22 -33,-45 -43,-71 -10,-26 -15,-55 -15,-88 -2,-53 9,-99 33,-137 24,-37 59,-67 105,-87 46,-20 101,-31 161,-32 36,-1 70,0 103,4 32,3 69,9 111,19 0,63 1,126 2,188 -28,1 -56,2 -82,2 -8,-34 -19,-61 -31,-81 -13,-19 -27,-34 -45,-43 -18,-10 -40,-14 -67,-13 -23,0 -43,5 -61,14 -18,9 -32,23 -42,40 -10,17 -15,38 -15,62 1,26 6,47 15,65 9,19 25,37 46,53 22,18 54,37 95,58 50,27 89,53 118,79 29,26 50,54 64,85 14,31 21,68 21,109 1,53 -10,100 -32,140 -23,40 -56,71 -99,93 -44,22 -93,34 -150,35 -42,1 -85,0 -128,-4 -45,-4 -87,-10 -125,-18 -1,-67 -2,-134 -3,-201 27,-1 54,-1 83,-2zm917 205c-118,3 -206,-31 -266,-104 -30,-36 -52,-83 -67,-138 -15,-55 -24,-120 -25,-194 -1,-49 3,-94 8,-135 6,-42 17,-80 31,-115 27,-70 69,-123 124,-160 56,-37 122,-57 199,-58 119,-3 211,33 271,106 30,36 53,81 69,136 16,54 26,118 27,191 1,81 -8,151 -25,210 -18,59 -43,107 -76,145 -33,39 -72,67 -117,86 -46,19 -96,29 -153,30zm-167 -458c2,65 5,122 12,170 7,49 20,88 34,120 30,63 74,94 134,92 31,-1 58,-10 79,-29 21,-18 38,-44 51,-76 14,-33 23,-71 29,-115 5,-44 7,-92 6,-145 -1,-85 -9,-157 -23,-215 -13,-57 -33,-101 -59,-130 -25,-29 -57,-43 -97,-42 -58,1 -101,32 -129,92 -14,30 -24,69 -30,115 -6,46 -8,101 -7,163zm976 429c-105,2 -210,4 -315,6 0,-14 0,-28 0,-42 15,-5 26,-10 35,-15 9,-5 15,-12 19,-21 4,-9 7,-20 8,-34 2,-13 1,-30 1,-51 0,-92 -1,-185 -2,-277 0,-93 -2,-186 -3,-278 -1,-20 -2,-37 -3,-51 -1,-14 -4,-25 -8,-34 -5,-8 -10,-15 -20,-20 -8,-5 -20,-10 -35,-14 0,-14 0,-28 0,-43 116,-2 233,-3 351,-5 47,-1 87,2 120,9 34,7 62,17 87,31 21,12 38,27 53,45 15,18 25,39 33,63 9,24 13,52 14,84 1,42 -4,79 -18,108 -15,31 -33,56 -55,76 -24,21 -56,39 -94,58 0,2 0,4 0,6 29,13 54,31 73,54 20,22 38,51 54,86 12,29 25,58 37,87 17,39 33,68 50,87 17,19 37,31 60,35 0,14 0,28 0,42 -77,1 -154,2 -231,4 -23,-34 -50,-85 -79,-152 -16,-36 -31,-73 -47,-109 -14,-32 -27,-55 -37,-69 -10,-14 -20,-23 -31,-28 -10,-5 -27,-7 -49,-7 -12,1 -24,1 -34,1 0,69 0,138 1,207 0,32 1,55 4,68 3,13 9,23 16,31 8,7 23,14 45,19 0,14 0,29 0,43zm-72 -801c1,60 1,119 2,179 1,59 2,119 3,179 19,-1 40,-1 60,-1 32,-1 58,-6 78,-15 21,-10 37,-23 49,-40 12,-16 21,-36 26,-58 4,-23 6,-47 5,-74 -1,-58 -16,-101 -41,-130 -26,-29 -64,-43 -114,-42 -35,0 -57,1 -68,2zm690 791c0,-14 0,-28 0,-43 15,-3 29,-7 39,-12 9,-5 16,-12 21,-21 5,-9 8,-20 9,-34 2,-14 2,-32 2,-52 0,-106 0,-213 -2,-319 -1,-107 -1,-213 -2,-320 -17,0 -33,0 -49,0 -24,1 -42,4 -55,10 -13,6 -24,15 -33,28 -10,13 -18,31 -24,52 -7,22 -12,42 -16,61 -28,1 -55,1 -83,1 -1,-37 -2,-75 -2,-112 0,-38 0,-75 0,-113 237,-2 473,-3 710,-4 0,38 0,75 0,113 0,37 1,74 1,112 -27,0 -55,0 -82,0 -10,-29 -15,-50 -20,-64 -5,-13 -10,-25 -15,-34 -6,-10 -12,-18 -18,-24 -6,-7 -12,-12 -19,-16 -7,-4 -15,-7 -25,-9 -10,-1 -24,-2 -40,-2 -15,0 -30,0 -44,0 1,106 2,213 3,319 1,107 1,213 1,320 0,22 1,40 2,51 1,12 3,22 6,29 4,7 8,13 12,17 5,5 11,9 20,13 8,3 19,6 33,8 0,14 0,28 0,42 -111,1 -221,2 -330,3z"/>
   <path class="fil1" d="M19693 12579c-1,23 -1,40 0,52 1,13 3,23 6,30 3,8 7,14 11,18 5,5 11,9 19,14 9,4 20,7 34,10 0,14 0,29 0,43 -109,-3 -217,-5 -325,-6 0,-15 0,-29 0,-44 15,-3 27,-8 35,-13 9,-5 16,-12 20,-21 4,-9 8,-21 9,-35 2,-14 3,-32 4,-53 3,-94 7,-189 8,-284 0,-94 1,-189 1,-284 1,-21 0,-38 -1,-52 -1,-14 -3,-25 -8,-34 -4,-9 -10,-16 -18,-22 -9,-6 -21,-11 -36,-15 0,-15 0,-29 0,-44 193,4 386,12 578,25 0,69 0,139 0,208 -28,-2 -55,-3 -82,-5 -13,-43 -25,-72 -33,-87 -9,-15 -20,-27 -33,-36 -13,-10 -35,-15 -65,-17 -39,-2 -77,-4 -116,-5 0,56 -1,112 -1,167 0,56 0,112 -1,168 26,1 52,2 77,3 19,1 33,-2 43,-8 10,-6 19,-15 26,-30 7,-14 12,-35 17,-62 22,1 45,2 67,3 0,48 0,96 0,143 0,48 -1,96 -2,143 -23,-1 -45,-2 -68,-3 -4,-28 -9,-50 -15,-65 -7,-15 -16,-26 -25,-33 -11,-7 -24,-10 -43,-11 -25,-1 -51,-2 -76,-3 -2,41 -3,82 -4,122 -1,41 -2,82 -3,123zm755 -69c-87,-7 -172,-13 -257,-19 -8,20 -15,41 -22,61 -5,17 -11,33 -15,49 -4,16 -6,33 -6,52 -1,42 20,66 61,72 0,15 0,29 0,43 -86,-5 -172,-10 -257,-14 0,-14 0,-29 0,-43 15,-1 28,-7 39,-16 12,-9 22,-21 32,-37 9,-16 19,-40 31,-70 44,-118 88,-236 130,-354 41,-118 83,-235 125,-351 54,4 107,9 160,14 33,124 66,247 99,371 33,123 65,246 97,368 8,33 16,56 22,70 5,14 13,26 22,34 10,9 24,16 41,22 0,14 0,28 0,42 -111,-8 -222,-15 -333,-22 0,-15 0,-29 0,-43 21,-1 36,-6 46,-16 10,-9 16,-23 16,-41 0,-13 -1,-28 -3,-45 -3,-16 -7,-37 -13,-63 -5,-21 -10,-43 -15,-64zm-233 -93c72,5 144,10 216,16 -16,-62 -32,-125 -48,-187 -16,-62 -32,-124 -48,-186 -20,59 -40,119 -60,178 -20,59 -39,119 -60,179zm922 409c-106,-5 -211,-11 -317,-18 0,-14 0,-28 0,-42 15,-3 27,-7 36,-11 9,-5 15,-11 20,-20 4,-8 6,-19 7,-33 2,-13 3,-30 3,-50 1,-92 3,-184 2,-276 -1,-92 -2,-185 -2,-277 0,-20 -1,-37 -2,-50 -1,-14 -3,-25 -8,-34 -4,-9 -10,-17 -19,-23 -8,-6 -20,-11 -36,-17 0,-14 0,-28 0,-42 117,9 233,17 349,23 48,3 88,7 121,16 32,8 61,20 86,35 21,13 38,28 53,46 14,19 25,41 33,65 8,24 12,52 12,84 1,42 -6,78 -18,107 -14,29 -32,54 -55,73 -23,19 -55,36 -93,52 0,2 0,4 -1,6 30,15 55,34 74,58 20,23 38,53 53,88 13,29 25,59 38,89 17,39 33,69 50,89 17,20 36,33 59,39 0,14 0,28 0,42 -77,-4 -155,-7 -232,-10 -24,-35 -50,-87 -79,-155 -15,-37 -30,-74 -46,-111 -14,-33 -26,-57 -35,-71 -10,-14 -21,-24 -32,-29 -10,-6 -27,-9 -49,-10 -12,-1 -23,-2 -35,-2 0,68 0,137 -1,205 0,32 1,55 4,68 2,12 8,23 16,31 8,8 23,16 44,23 0,14 0,28 0,42zm-66 -799c0,59 0,118 1,177 0,60 1,119 2,178 19,1 39,2 59,3 32,2 59,-2 79,-10 21,-8 37,-20 49,-36 12,-16 21,-35 25,-57 4,-22 6,-46 6,-72 -1,-58 -14,-102 -39,-132 -26,-30 -64,-46 -114,-49 -34,-1 -57,-2 -68,-2zm1482 44c-21,5 -35,11 -43,18 -7,7 -12,17 -15,29 -3,13 -4,35 -4,67 2,94 4,187 7,280 2,93 4,186 5,279 1,27 2,47 4,63 3,15 8,27 16,35 7,9 22,17 45,25 0,14 0,28 0,42 -103,-6 -206,-12 -309,-19 0,-15 0,-29 0,-43 17,-4 29,-8 36,-11 7,-4 12,-8 16,-14 4,-7 7,-16 9,-28 1,-13 2,-34 1,-63 0,-53 -1,-106 -1,-158 -1,-53 -3,-106 -4,-159 -1,-35 -1,-76 -1,-123 0,-48 1,-81 2,-101 -4,0 -8,0 -13,-1 -5,17 -9,34 -14,50 -5,16 -15,45 -28,87 -25,76 -51,152 -76,228 -26,76 -52,152 -79,228 -35,-3 -71,-5 -106,-8 -29,-89 -57,-178 -86,-266 -30,-89 -60,-178 -90,-267 -10,-30 -20,-60 -27,-89 -4,-1 -8,-1 -11,-1 2,35 4,74 6,116 1,42 3,87 4,135 1,50 2,99 2,148 0,50 1,99 1,148 0,32 1,54 4,67 3,12 8,23 17,32 8,8 23,16 44,23 0,14 0,28 0,42 -77,-4 -153,-9 -229,-14 0,-14 0,-28 0,-42 16,-4 27,-8 36,-12 9,-5 15,-11 20,-20 4,-8 7,-18 8,-32 1,-13 1,-30 1,-50 0,-93 0,-185 -1,-278 -2,-93 -4,-185 -5,-278 0,-32 -1,-55 -4,-67 -3,-12 -8,-22 -16,-30 -7,-8 -22,-16 -45,-24 0,-14 0,-28 0,-42 99,4 198,9 298,14 27,90 56,180 85,270 29,90 59,180 88,270 29,-86 57,-172 85,-259 27,-86 57,-173 87,-259 93,6 187,13 280,20 0,14 0,28 0,42zm205 632c10,52 28,91 51,117 24,26 59,40 105,41 24,1 45,-2 63,-10 20,-8 35,-21 45,-39 11,-19 17,-42 16,-70 0,-26 -5,-49 -15,-69 -10,-19 -25,-38 -46,-56 -21,-19 -50,-39 -87,-60 -32,-19 -60,-38 -86,-57 -26,-20 -48,-40 -66,-63 -19,-23 -33,-48 -44,-74 -11,-27 -16,-56 -17,-88 -1,-53 10,-96 35,-132 23,-34 58,-60 104,-75 46,-15 99,-20 160,-14 35,3 70,8 102,15 32,7 69,17 111,31 0,60 1,120 3,180 -28,-2 -55,-4 -82,-6 -9,-34 -20,-60 -31,-81 -12,-20 -27,-36 -45,-47 -18,-10 -40,-17 -67,-19 -22,-2 -43,0 -60,7 -18,8 -32,19 -42,35 -10,16 -16,36 -15,60 0,25 5,46 15,65 9,19 25,38 47,56 22,19 53,40 94,65 50,30 90,58 119,85 29,28 51,56 65,87 15,31 23,66 24,106 1,51 -9,94 -32,132 -22,36 -55,65 -99,85 -44,20 -94,28 -152,27 -41,-2 -84,-6 -128,-13 -45,-7 -86,-16 -126,-27 0,-66 -1,-132 -2,-198 28,1 55,3 83,4z"/>
   <path class="fil0" d="M5376 10202c828,484 1794,-51 2359,-843 398,42 710,-12 720,-404 169,207 109,365 -45,457 -149,88 -352,100 -592,63 -658,933 -1750,1376 -2442,727z"/>
   <path class="fil0" d="M8519 7757c-160,363 -349,717 -544,1064 23,30 54,59 108,69 176,-329 367,-651 529,-987 40,-82 -30,-132 -93,-146z"/>
   <path class="fil0" d="M8074 7302c-95,-118 -283,-176 -451,-148 -289,47 -348,305 -364,556 -16,255 49,518 235,757 -116,-255 -209,-675 -64,-965 102,-205 252,-345 644,-200z"/>
   <path class="fil0" d="M9488 5618c-193,476 -387,952 -580,1429 96,133 185,275 269,424 -50,-123 -106,-240 -176,-344 134,-282 238,-575 369,-901 71,-175 94,-381 118,-608z"/>
   <path class="fil0" d="M10134 4973c467,344 132,1412 36,2108 -89,649 -329,1347 -254,2137 -121,-21 -128,-170 -122,-269 38,-644 163,-1280 251,-1919 61,-447 177,-888 197,-1339 11,-242 9,-502 -108,-718z"/>
   <path class="fil0" d="M12329 7132c-320,-87 -542,28 -710,217 -281,314 -509,826 -482,1253 14,224 73,439 157,586 -181,-168 -251,-385 -257,-604 -12,-483 167,-971 479,-1321 182,-205 543,-368 813,-131z"/>
   <path class="fil0" d="M12538 6603c75,68 197,154 284,367 -13,-139 -173,-329 -284,-367z"/>
   <path class="fil0" d="M13693 6643c144,81 146,246 126,377 -56,359 -237,896 -340,1408 -56,275 -118,529 -67,774 -164,-91 -151,-315 -101,-559 87,-419 167,-846 280,-1258 92,-338 174,-646 102,-742z"/>
   <path class="fil0" d="M15293 6138c48,27 184,139 164,303 -43,1 -100,-22 -100,-22 0,0 7,-172 -64,-281z"/>
   <path class="fil0" d="M15626 7365c11,-240 -264,-225 -398,-222 -66,370 -181,701 -313,1124 -168,536 -467,1071 -909,1417 -278,218 -681,265 -1052,120 287,241 780,252 1059,45 490,-364 783,-885 1063,-1689 0,0 274,-914 285,-934 12,-21 225,1 265,139z"/>
   <path class="fil0" d="M18135 10287c-6,66 -12,132 -18,198 -1048,414 -1865,1292 -1674,2248 -273,-192 -101,-884 132,-1220 376,-544 831,-901 1560,-1226z"/>
   <path class="fil0" d="M10565 9589c32,36 64,72 96,108 -142,151 -351,273 -580,322 -284,62 -635,-46 -843,-254 227,131 447,167 676,141 247,-28 469,-179 651,-317z"/>
   <path class="fil0" d="M12562 9341c21,49 52,107 84,143 -56,74 -141,157 -237,233 -211,170 -458,311 -765,334 -262,19 -587,-51 -757,-221 185,106 538,122 775,84 304,-49 493,-175 684,-348 85,-77 160,-168 216,-225z"/>
  </g>
 </g>
</svg>
