<?xml version="1.0" encoding="UTF-8"?>
<!DOCTYPE svg PUBLIC "-//W3C//DTD SVG 1.1//EN" "http://www.w3.org/Graphics/SVG/1.1/DTD/svg11.dtd">
<!-- Creator: CorelDRAW X7 -->
<svg xmlns="http://www.w3.org/2000/svg" xml:space="preserve" width="297mm" height="210mm" version="1.1" style="shape-rendering:geometricPrecision; text-rendering:geometricPrecision; image-rendering:optimizeQuality; fill-rule:evenodd; clip-rule:evenodd"
viewBox="0 0 29700 21000"
 xmlns:xlink="http://www.w3.org/1999/xlink">
 <defs>
  <style type="text/css">
   <![CDATA[
    .fil0 {fill:#CD9A32}
    .fil1 {fill:#CD9A32;fill-rule:nonzero}
   ]]>
  </style>
 </defs>
 <g id="Layer_x0020_1">
  <metadata id="CorelCorpID_0Corel-Layer"/>
  <g id="_1332116460832">
   <path class="fil0" d="M3780 9099c656,308 717,-463 304,-622 -409,-157 -1019,425 -724,1098 415,948 2023,907 3045,-609 129,91 643,167 736,-235 -255,13 -460,21 -568,-183 269,-525 539,-1050 808,-1575 752,782 349,2192 1006,2588 414,249 980,75 1406,-353 764,951 2003,377 2379,-388 297,1109 1293,948 1843,363 696,-740 907,-1863 1176,-2810 594,4 707,136 660,434 -136,854 -606,1985 -251,2532 328,504 1121,419 1787,-262 441,552 1108,306 1779,-430 -38,243 -75,487 -113,730 -1073,426 -2527,1240 -3050,2571 -148,374 -282,1042 46,1498 361,502 1247,687 2185,-107 1011,-856 1351,-2646 1603,-3778 362,-164 831,-387 1161,-734 374,940 1595,1241 2445,120 389,1282 1724,588 2097,-240 156,-345 142,-336 219,-565 88,-263 68,-393 -148,-477 -249,-97 -310,44 -365,171 -155,360 -256,883 -687,1104 -267,136 -488,-65 -460,-440 22,-305 163,-786 241,-1160 176,-843 182,-840 256,-1084 116,-383 -229,-458 -433,-390 -199,67 -281,306 -404,496 -252,-374 -550,-643 -914,-703 -351,-57 -743,82 -1096,396 -605,536 -869,1454 -890,2254 -204,322 -631,515 -897,667 115,-970 263,-1946 341,-2919 13,-170 15,-403 -226,-459 -322,-75 -366,158 -417,332 -188,645 -266,1319 -480,1959 -39,118 -169,275 -327,430 -169,165 -342,338 -541,326 -221,-13 -202,-496 -159,-761 88,-547 288,-1172 385,-1742 33,-195 72,-468 -253,-533 -216,-44 -376,53 -436,307 -215,897 -347,1621 -483,2527 -213,382 -748,735 -1016,510 -229,-191 -129,-541 -89,-786 78,-474 260,-1017 326,-1362 150,-795 -172,-715 -648,-861 -242,-74 -433,-114 -649,-184 101,-597 -596,-870 -925,-353 -148,233 -48,619 358,846 -265,763 -502,1764 -895,2275 -207,269 -439,556 -656,547 -308,-12 -335,-331 -318,-497 83,-854 390,-1577 515,-2394 18,-123 14,-254 -94,-318 -79,-47 -159,-96 -274,-37 -156,81 -356,327 -507,722 -410,-854 -1280,-1141 -2034,-529 -770,624 -1182,1835 -883,2838 -249,336 -662,355 -806,96 -90,-162 -32,-461 -20,-724 59,-1233 530,-2555 530,-3665 0,-245 -111,-747 -509,-767 -555,-28 -760,435 -836,620 -250,607 -484,1084 -745,1672 -732,-447 -1635,-301 -1942,671 -210,664 -1,1507 692,1970 -280,357 -593,769 -1094,1006 -453,214 -1308,50 -1067,-640zm7690 -2862c-544,0 -1095,653 -1232,1458 -137,806 79,1472 736,1458 656,-14 1095,-652 1232,-1458 137,-805 -193,-1458 -736,-1458zm-3813 203c299,-699 598,-1398 897,-2097 226,143 51,842 -34,1240 -116,544 -228,1083 -344,1634 -201,-360 -324,-530 -519,-777zm-1473 1893c321,-621 536,-1101 783,-1709 -263,-266 -842,-341 -1098,81 -286,473 -129,1191 315,1628zm12746 1682c-739,303 -1752,829 -2217,1673 -115,209 -233,453 -267,675 -109,691 219,1285 934,896 394,-214 733,-750 892,-1063 365,-723 543,-1588 658,-2181zm3896 -3795c-518,-24 -1083,671 -1213,1476 -131,805 168,1438 712,1416 601,-25 1054,-614 1185,-1419 130,-806 0,-1441 -684,-1473z"/>
   <path class="fil0" d="M16921 5888c867,-949 2375,-1996 3213,-1321 270,-423 -83,-774 -544,-845 -403,-63 -878,116 -1201,276 -615,304 -1135,815 -1510,1304 -605,-711 -1330,-1310 -2196,-1434 -325,-46 -536,65 -612,213 -86,169 16,373 114,371 1078,-16 1901,577 2736,1436z"/>
   <path class="fil0" d="M16767 6315c151,127 164,322 135,487 -79,442 -241,909 -340,1371 -48,223 -91,390 -82,695 -182,-101 -138,-341 -104,-505 122,-590 282,-1092 388,-1645 25,-132 41,-258 3,-403z"/>
   <path class="fil0" d="M15837 9733c606,187 1156,-85 1554,-456 37,34 93,91 130,126 -164,184 -501,412 -787,489 -293,78 -661,24 -897,-159z"/>
   <path class="fil0" d="M18930 9083c-13,65 -26,129 -39,194 -488,319 -892,486 -1264,184 477,157 915,-61 1303,-378z"/>
   <path class="fil0" d="M18701 5775c12,182 -5,303 -32,452 -111,601 -263,1138 -382,1793 -29,162 -72,416 113,480 -17,-205 5,-376 40,-568 99,-544 264,-1091 363,-1635 33,-185 71,-365 -102,-522z"/>
   <path class="fil0" d="M20418 5756c150,123 184,302 163,466 -105,809 -189,1609 -283,2414 -59,38 -118,76 -176,113 108,-854 239,-1706 324,-2563 15,-143 27,-273 -28,-430z"/>
   <path class="fil0" d="M23264 6529c-147,-129 -466,-255 -706,-120 -527,294 -811,1071 -827,1701 -8,368 132,588 262,728 -86,-223 -163,-395 -141,-721 37,-560 301,-1279 713,-1525 220,-132 462,-106 699,-63z"/>
   <path class="fil0" d="M24715 5914c0,0 194,99 152,445 -43,346 -463,1967 -463,1967 -55,216 -23,435 -28,522 -75,-33 -199,-90 -127,-466 96,-507 460,-1975 473,-2026 14,-57 49,-290 -7,-442z"/>
   <path class="fil0" d="M23377 5793c95,73 247,162 370,405 -29,-162 -236,-370 -370,-405z"/>
   <path class="fil0" d="M25955 7786c0,0 183,149 84,487 -98,339 -451,1053 -769,1286 -318,233 -918,670 -1532,77 0,0 339,325 896,106 558,-219 911,-713 1088,-1123 176,-409 261,-621 233,-833z"/>
   <path class="fil0" d="M23409 9230l60 159c-660,643 -1419,718 -1980,233 0,0 953,600 1920,-392z"/>
   <path class="fil0" d="M17033 5993c469,-479 915,-829 1448,-1130 455,-257 1143,-581 1684,-134 243,-132 285,-501 77,-826 248,241 292,368 276,586 -10,130 -89,253 -177,349 -28,31 -77,19 -123,-21 -85,-73 -148,-138 -260,-164 -283,-67 -596,4 -908,108 -248,83 -495,219 -667,331 -463,300 -838,595 -1258,1035 -30,-45 -61,-89 -92,-134z"/>
   <path class="fil0" d="M20958 9062c34,59 68,118 102,177 -314,248 -636,414 -974,586 -45,215 -90,431 -135,646 1348,50 2596,157 3873,285 758,75 1495,132 2232,326 458,121 401,423 261,536 -129,104 -233,196 -307,339 -209,403 -269,1087 -219,1688 2,525 461,1084 7,1363 -472,289 -1045,366 -1582,475 46,829 -787,940 -1391,746 -282,-90 -532,-352 -628,-628 -5,-381 -10,-763 -14,-1144 -1377,-84 -2722,-132 -4131,-155 246,263 409,582 252,1149 237,-214 543,-463 871,-635 467,-245 998,-306 1461,-11 106,68 196,155 252,265 173,344 -9,752 -391,858 -282,79 -615,-6 -641,-444 -10,-162 209,-372 427,-229 110,72 138,281 -42,353 19,191 249,135 360,28 190,-182 179,-515 -72,-635 -623,-299 -1334,-46 -1997,529 323,-36 762,-73 819,346 10,443 -373,440 -586,332 214,-26 309,-118 324,-202 26,-143 -139,-271 -367,-280 -237,-10 -442,92 -835,271 -339,155 -888,38 -1009,-402 -67,-242 20,-634 362,-669 300,-31 395,209 353,364 -37,134 -233,290 -402,106 -119,338 339,506 596,353 349,-208 600,-892 141,-1211 -504,-351 -1342,-169 -1842,39 -420,175 -845,498 -1077,837 104,283 419,436 704,430 135,-2 307,-110 372,-249 75,-156 -2,-306 -185,-296 -99,6 -194,74 -122,175 -112,42 -163,-18 -170,-97 -27,-311 456,-335 625,-223 188,123 194,302 157,440 -86,319 -436,465 -753,439 -229,-18 -406,-124 -568,-263 202,373 626,745 992,625 -134,190 -369,199 -574,119 -223,-87 -398,-304 -509,-512 -65,-121 -116,-276 -167,-419 -56,153 -111,287 -171,404 -78,152 -216,380 -420,490 -232,125 -533,119 -698,-96 415,177 758,-180 954,-530 -520,365 -1060,140 -1222,-155 -95,-173 -42,-476 202,-575 141,-58 374,-35 498,49 143,96 171,344 -78,314 108,-178 -229,-253 -325,-106 -109,167 13,457 381,459 280,2 578,-141 713,-445 -501,-498 -1074,-830 -1631,-988 -552,-157 -1564,-124 -1596,650 -13,313 207,686 572,748 232,39 559,-117 431,-381 -119,67 -456,87 -410,-254 35,-252 492,-386 678,-22 105,206 79,423 -20,592 -210,357 -623,357 -978,251 -224,-67 -448,-227 -675,-257 -555,-71 -616,478 -177,431 -217,267 -604,27 -579,-258 49,-537 666,-422 908,-314 -384,-339 -1062,-684 -1585,-709 -588,-29 -734,306 -657,586 62,227 433,367 522,105 -241,-22 -256,-286 -56,-353 203,-67 420,79 355,387 -54,255 -353,468 -715,277 -296,-155 -506,-635 -170,-988 344,-361 950,-383 1490,-127 349,164 657,374 953,656 -197,-545 -38,-800 233,-1094 -1359,19 -2669,55 -4046,141 3,337 5,673 8,1010 -92,758 -1057,952 -1610,727 -246,-100 -452,-367 -382,-699 -842,-178 -1746,-269 -1835,-791 36,-361 232,-687 268,-1052 66,-676 79,-1519 -346,-1906 -198,-181 -224,-506 494,-636 4081,-738 8414,-659 12505,-720 -260,219 -418,445 -579,710 -1369,-24 -2729,4 -4077,43 -2701,77 -5360,259 -8011,588 56,93 79,163 112,254 1682,-181 3347,-319 5046,-401 2244,-109 4539,-168 6768,-170 -53,69 -82,146 -99,219 -3846,-85 -7865,162 -11647,592 13,54 24,108 35,164 118,12 246,16 364,27 -113,26 -233,56 -345,82 10,62 19,123 25,187 111,-3 214,-6 325,-9 -108,28 -209,54 -317,81 6,72 11,144 16,220 143,-7 262,-12 405,-19 -140,40 -261,75 -402,115 1,78 0,148 0,220 134,-3 249,-5 383,-8 -135,36 -251,68 -386,104 -2,68 -8,140 -13,210 157,-1 306,-1 462,-2 -161,41 -312,79 -473,119 -6,73 -18,150 -28,220 1676,-233 3306,-288 4964,-360 2253,-98 4465,-145 6764,-148 31,81 89,162 191,243 -2722,2 -5488,77 -8230,195 -1283,55 -2582,167 -3841,324 -3,139 -19,273 -10,417 97,155 245,362 497,427 -115,-95 -219,-202 -300,-321 10,-91 19,-181 29,-272 1296,-129 2570,-201 3859,-281 851,-52 1708,-62 2559,-114 1956,-22 3912,-43 5868,-64 -84,-40 -147,-85 -191,-134 624,291 1387,83 1871,-325 715,-603 1085,-1208 1490,-2634 112,-394 203,-796 275,-1200 351,-198 702,-395 1005,-641zm-1388 2666c2026,53 4045,170 6099,436 -12,47 -24,94 -36,141 -159,-2 -318,-4 -478,-5 153,36 305,72 458,108 -10,62 -19,123 -29,185 -126,1 -252,2 -377,3 122,27 245,53 367,80 -6,76 -12,152 -19,229 -118,-1 -236,-1 -354,-2 117,28 233,55 350,83 -2,78 -5,155 -7,232 -132,-3 -264,-5 -396,-8 132,41 264,83 396,125 1,74 3,148 4,222 -150,-8 -299,-16 -449,-24 151,35 301,70 452,106 5,80 10,161 14,242 -2433,-305 -4711,-308 -7024,-405 442,-519 799,-1067 1029,-1748zm172 -518c2084,82 4161,199 6167,479 -64,79 -118,151 -161,252 -2059,-221 -4017,-357 -6094,-451 33,-106 59,-187 88,-280zm-15427 3393c465,369 1565,398 2403,715 235,89 517,336 259,535 -298,230 -673,269 -995,148 -177,-66 -292,-350 -170,-459 86,-76 145,-78 233,-64 17,33 33,66 50,99 -140,-2 -182,70 -174,149 23,219 264,242 439,232 161,-9 373,-51 483,-197 192,-256 -422,-442 -805,-544 -589,-156 -1545,-169 -1723,-614zm784 56c510,75 1020,112 1504,269 269,87 513,199 717,452 0,68 0,136 0,204 -119,-214 -291,-356 -495,-441 -551,-230 -1132,-334 -1726,-484zm205 -157c403,-19 749,5 1103,60 0,0 139,19 81,92 -40,51 -139,0 -201,-14 -307,-70 -635,-99 -983,-138zm8272 -226c817,0 1633,0 2450,0 -543,245 -880,525 -1214,946 -345,-414 -750,-684 -1236,-946zm11828 327c-465,369 -1565,398 -2403,715 -235,89 -517,336 -259,535 298,230 673,269 995,148 177,-66 291,-350 170,-459 -86,-76 -145,-78 -233,-64 -17,33 -33,66 -50,99 140,-2 182,70 173,149 -22,219 -263,242 -438,232 -161,-9 -374,-51 -483,-197 -192,-256 422,-442 805,-544 589,-156 1544,-169 1723,-614zm-784 56c-510,75 -1020,112 -1504,269 -269,87 -513,199 -717,452 0,68 0,136 0,204 119,-214 290,-356 494,-441 552,-230 1132,-334 1727,-484zm-205 -157c-403,-19 -750,5 -1103,60 0,0 -139,19 -81,92 40,51 139,0 201,-14 307,-70 635,-99 983,-138z"/>
   <path class="fil0" d="M14806 16027c111,304 249,512 522,742 -98,9 -197,18 -296,28 -30,189 -108,347 -226,494 -152,-169 -212,-314 -244,-487 -115,-11 -230,-21 -346,-32 234,-52 499,-437 590,-745z"/>
   <path class="fil1" d="M5626 13230c2,38 5,63 8,77 3,14 10,25 19,34 9,8 26,15 51,19 0,17 0,33 0,49 -122,9 -246,17 -368,26 0,-16 0,-32 0,-48 26,-9 44,-18 52,-26 8,-7 14,-18 18,-32 3,-13 2,-40 1,-82 -2,-48 -3,-97 -6,-145 -2,-49 -5,-97 -8,-146 -107,9 -214,18 -321,27 4,48 6,96 9,144 3,47 4,96 5,144 1,16 3,32 5,46 1,14 3,26 6,35 3,9 6,17 11,22 5,6 13,11 23,15 10,4 23,7 36,9 0,16 0,32 0,48 -124,8 -248,15 -371,22 0,-16 0,-31 0,-47 17,-6 30,-12 39,-18 10,-6 18,-14 23,-24 5,-10 8,-23 9,-37 1,-15 1,-34 0,-57 -4,-102 -10,-204 -15,-306 -6,-102 -10,-205 -14,-307 -1,-22 -3,-41 -5,-56 -1,-15 -6,-26 -11,-36 -4,-9 -11,-16 -21,-21 -11,-5 -25,-8 -42,-12 0,-15 -1,-31 -1,-46 123,-13 247,-25 372,-38 0,16 1,31 1,47 -25,10 -42,20 -51,29 -10,10 -16,22 -20,36 -3,15 -4,41 -3,77 3,80 8,160 12,240 106,-9 214,-18 322,-28 -5,-80 -11,-161 -14,-242 -1,-37 -3,-63 -7,-77 -4,-13 -10,-25 -19,-33 -9,-8 -27,-14 -52,-19 0,-16 -1,-31 -1,-48 123,-12 247,-25 371,-38 0,17 1,33 1,49 -21,8 -36,16 -46,23 -9,7 -16,17 -19,27 -4,11 -6,23 -7,36 -1,13 -1,32 0,58 4,106 8,211 13,316 5,105 11,209 15,314zm640 147c-140,12 -243,-24 -314,-102 -37,-41 -65,-90 -85,-152 -19,-62 -31,-135 -35,-219 -3,-55 -2,-107 4,-155 5,-48 18,-92 34,-133 31,-82 78,-146 144,-194 65,-47 142,-76 234,-85 142,-14 249,19 320,98 36,40 65,90 85,152 19,62 32,135 36,219 4,94 -4,176 -22,246 -18,69 -45,127 -83,174 -37,46 -83,82 -138,107 -54,24 -114,39 -180,44zm-211 -513c4,74 11,139 22,194 11,55 26,99 45,134 36,71 89,103 159,97 36,-3 67,-15 92,-38 25,-23 46,-53 60,-92 15,-38 25,-83 29,-134 3,-52 5,-108 3,-168 -4,-99 -16,-182 -34,-247 -17,-65 -42,-114 -73,-145 -30,-31 -68,-45 -116,-40 -68,7 -120,46 -151,118 -15,35 -27,80 -31,134 -5,53 -8,116 -5,187zm960 442c0,-17 0,-33 0,-50 19,-5 34,-11 46,-18 11,-6 20,-15 26,-26 6,-11 8,-25 9,-42 1,-16 2,-36 1,-60 -3,-125 -10,-250 -15,-375 -6,-125 -9,-250 -13,-375 -20,2 -39,3 -58,5 -28,2 -50,8 -65,16 -15,9 -27,21 -38,37 -10,16 -20,37 -27,63 -7,26 -13,50 -17,73 -32,3 -65,6 -97,9 -1,-44 -4,-88 -6,-131 -1,-44 -1,-88 -1,-132 278,-26 558,-50 837,-73 1,44 1,89 2,133 1,44 2,88 3,132 -32,3 -65,5 -97,8 -10,-34 -18,-58 -24,-74 -6,-15 -11,-29 -18,-39 -7,-11 -13,-21 -20,-27 -9,-7 -16,-13 -24,-17 -9,-4 -19,-6 -31,-7 -12,-1 -28,-1 -48,0 -17,2 -34,3 -51,5 4,125 9,250 13,376 5,125 11,250 15,375 0,27 2,47 4,61 2,13 4,25 8,33 3,8 8,14 14,19 5,5 13,9 22,13 10,3 24,6 41,7 0,17 0,33 0,50 -132,10 -261,20 -391,31zm1401 -1138c0,81 3,161 4,241 -32,2 -64,4 -96,7 -17,-48 -32,-79 -44,-95 -11,-16 -24,-29 -39,-38 -15,-8 -40,-12 -78,-9 -52,3 -104,7 -154,10 1,61 3,122 5,182 2,60 3,121 5,182 32,-3 63,-5 95,-7 21,-1 37,-5 49,-13 11,-6 21,-18 28,-33 7,-15 13,-38 20,-70 26,-1 53,-3 80,-5 2,51 4,103 5,154 2,51 5,103 6,154 -27,1 -53,3 -79,5 -9,-29 -17,-51 -25,-66 -9,-15 -20,-25 -31,-31 -11,-6 -28,-8 -50,-6 -31,2 -63,4 -94,6 3,67 5,135 7,202 2,68 4,135 5,202 51,-3 102,-7 154,-10 16,-1 30,-3 41,-6 11,-3 22,-8 31,-14 8,-6 17,-14 26,-24 8,-10 14,-21 20,-32 7,-12 13,-27 20,-46 6,-19 14,-44 22,-76 32,-2 64,-4 96,-6 -1,46 -2,92 -3,138 -1,47 -3,93 -5,139 -232,15 -464,30 -696,46 0,-16 0,-33 0,-49 19,-7 32,-13 42,-20 9,-6 17,-15 22,-25 5,-11 9,-25 9,-40 1,-16 1,-37 0,-61 -3,-108 -8,-217 -12,-325 -4,-109 -7,-218 -11,-326 0,-24 -1,-44 -3,-60 -2,-16 -6,-28 -11,-39 -5,-9 -12,-17 -22,-23 -10,-5 -25,-10 -43,-13 0,-17 -2,-33 -2,-50 234,-18 470,-34 706,-50zm509 -28c0,17 0,34 0,50 -17,6 -30,12 -40,19 -10,6 -17,14 -23,25 -5,10 -8,23 -9,39 -1,16 -2,37 -1,61 4,126 8,252 13,377 4,126 6,252 8,378 46,-2 92,-4 137,-6 28,-1 50,-7 66,-16 18,-11 31,-25 43,-45 11,-19 22,-44 30,-75 8,-31 13,-60 18,-87 32,-1 65,-2 97,-4 -1,52 -4,103 -5,154 -1,52 -2,103 -4,154 -226,9 -452,19 -675,31 0,-17 -1,-33 -1,-50 17,-6 30,-12 40,-19 10,-6 18,-15 23,-26 5,-10 7,-24 9,-40 1,-16 1,-36 1,-60 -3,-109 -6,-218 -10,-327 -4,-108 -6,-217 -10,-326 -1,-24 -3,-44 -4,-60 -2,-16 -6,-29 -11,-39 -5,-10 -12,-18 -22,-23 -10,-6 -25,-11 -42,-15 -1,-16 -1,-33 -1,-50 124,-7 248,-14 373,-20zm965 779c1,76 2,153 3,230 -64,1 -128,1 -191,3 0,-77 -1,-154 -3,-230 63,-2 127,-3 191,-3zm837 225c-125,1 -248,2 -373,3 0,-17 0,-34 0,-51 18,-5 31,-11 41,-16 11,-7 18,-15 23,-25 5,-11 8,-24 9,-40 0,-16 1,-37 1,-61 -2,-110 -5,-221 -8,-331 -3,-110 -5,-220 -9,-331 0,-24 -1,-44 -3,-60 -1,-17 -5,-30 -10,-40 -4,-10 -12,-18 -22,-25 -11,-6 -24,-11 -43,-16 0,-17 0,-34 0,-51 138,-2 276,-4 414,-6 57,-1 104,3 144,10 39,8 72,21 102,37 25,15 46,32 63,54 16,21 30,46 41,75 11,29 16,63 17,101 2,50 -6,94 -21,130 -16,36 -37,66 -64,91 -28,24 -63,47 -109,68 0,3 0,6 0,8 35,16 64,37 88,65 23,26 45,61 64,103 15,34 29,69 46,104 21,46 41,81 60,104 20,23 44,37 71,41 0,17 0,34 0,51 -91,2 -181,3 -273,5 -28,-41 -59,-102 -94,-182 -19,-43 -38,-87 -58,-131 -17,-39 -32,-66 -44,-82 -12,-17 -25,-28 -37,-34 -13,-6 -32,-9 -58,-8 -15,0 -29,0 -42,0 1,83 4,165 5,248 1,38 3,65 7,80 4,16 9,28 18,37 10,9 27,17 54,24 0,17 0,34 0,51zm-97 -956c1,71 4,142 5,213 2,71 4,142 6,213 23,0 45,0 69,-1 38,0 70,-6 94,-17 24,-11 43,-27 57,-47 14,-20 24,-43 28,-70 5,-27 7,-56 6,-88 -2,-70 -18,-122 -49,-156 -31,-35 -76,-51 -136,-50 -41,0 -67,1 -80,3zm1372 -118c0,81 1,163 2,244 -31,1 -64,2 -97,3 -16,-49 -31,-81 -42,-98 -11,-17 -24,-31 -39,-40 -15,-10 -40,-15 -77,-14 -52,1 -105,2 -156,3 0,62 2,124 4,185 1,62 3,123 4,185 32,-1 63,-2 95,-2 20,-1 37,-4 48,-11 11,-6 21,-17 29,-32 7,-15 14,-39 20,-70 26,-1 54,-1 81,-2 1,52 2,104 3,156 1,52 2,104 3,157 -27,0 -54,1 -80,1 -8,-29 -15,-51 -24,-67 -9,-15 -18,-27 -28,-33 -11,-7 -30,-9 -51,-9 -32,1 -63,1 -94,2 1,68 2,137 3,205 2,69 3,137 3,206 51,-1 102,-2 154,-3 17,-1 31,-2 42,-5 11,-2 22,-7 31,-12 8,-6 17,-15 25,-24 8,-10 15,-21 21,-32 7,-12 13,-27 20,-45 6,-19 15,-45 23,-77 32,-1 65,-1 96,-2 -1,47 -2,94 -4,140 -2,47 -4,94 -5,141 -234,5 -466,10 -698,15 0,-17 0,-34 0,-51 19,-5 31,-11 41,-17 10,-6 18,-14 23,-25 5,-11 8,-24 10,-40 2,-17 1,-37 1,-62 -1,-110 -3,-221 -5,-331 -3,-111 -5,-222 -8,-332 0,-24 -3,-45 -4,-61 -1,-16 -5,-29 -10,-40 -5,-10 -12,-19 -22,-25 -10,-6 -25,-11 -44,-16 0,-17 -1,-34 -1,-51 235,-4 471,-9 707,-14zm238 785c12,61 33,106 61,135 27,29 68,43 121,42 28,-1 54,-6 76,-18 22,-10 39,-28 52,-51 14,-23 21,-51 20,-86 -1,-31 -6,-59 -17,-82 -12,-23 -29,-45 -54,-65 -25,-21 -59,-42 -103,-64 -37,-19 -70,-39 -101,-60 -30,-21 -55,-44 -77,-69 -22,-26 -39,-53 -51,-84 -12,-30 -18,-65 -19,-103 -1,-63 11,-117 40,-162 28,-45 70,-79 125,-103 54,-24 118,-37 190,-38 42,-1 82,0 120,5 38,4 83,11 132,22 0,74 1,149 2,223 -33,0 -65,1 -97,2 -10,-41 -22,-72 -37,-96 -14,-23 -31,-40 -52,-51 -22,-11 -48,-16 -79,-15 -27,0 -51,6 -73,17 -21,10 -37,26 -49,47 -12,20 -18,45 -17,73 0,30 6,56 17,77 11,22 29,43 54,63 26,20 64,43 112,68 60,31 105,63 139,93 35,31 60,64 76,101 17,37 25,79 25,129 1,62 -11,118 -38,164 -26,47 -66,84 -117,110 -51,26 -110,40 -177,42 -49,1 -100,-1 -151,-5 -53,-5 -102,-12 -148,-22 -1,-79 -2,-158 -3,-237 31,0 64,-1 98,-2zm1083 242c-139,4 -244,-37 -314,-123 -35,-43 -62,-97 -79,-162 -18,-66 -28,-142 -30,-230 -1,-57 3,-110 10,-160 6,-49 20,-94 36,-135 32,-82 81,-146 147,-189 66,-44 144,-67 235,-69 140,-3 248,39 320,125 35,43 63,97 81,161 19,64 31,139 32,225 1,96 -9,179 -30,248 -21,70 -51,127 -89,172 -39,46 -85,80 -138,101 -55,23 -114,34 -181,36zm-197 -541c2,77 6,144 14,201 8,57 23,104 40,142 35,74 87,110 158,108 37,-1 69,-12 93,-34 26,-22 46,-52 61,-90 16,-38 27,-83 34,-135 6,-52 8,-109 8,-172 -2,-101 -12,-185 -28,-254 -15,-67 -39,-118 -69,-153 -30,-34 -69,-51 -115,-50 -69,1 -120,38 -152,109 -17,36 -29,81 -36,136 -7,54 -9,119 -8,192zm1153 506c-125,3 -249,6 -373,8 0,-16 0,-33 0,-50 18,-5 32,-11 41,-17 11,-6 18,-15 23,-25 5,-11 8,-24 10,-40 2,-16 1,-36 1,-60 0,-110 -1,-219 -2,-328 -1,-110 -3,-219 -4,-329 -1,-23 -2,-43 -4,-59 -1,-17 -4,-30 -9,-40 -6,-10 -12,-18 -23,-24 -10,-6 -24,-12 -43,-17 0,-16 0,-33 0,-50 138,-2 276,-4 415,-6 56,-1 104,2 143,10 39,8 72,21 102,37 25,14 45,32 63,53 17,21 29,47 39,75 10,28 15,61 16,99 1,49 -5,92 -22,128 -17,35 -38,66 -65,89 -27,24 -65,47 -111,68 0,3 0,5 0,8 35,15 65,36 87,63 23,27 45,61 63,102 15,34 30,68 45,103 20,45 39,80 59,102 20,23 43,37 70,41 0,17 0,34 0,50 -90,2 -181,3 -272,5 -28,-40 -59,-100 -94,-179 -19,-43 -37,-86 -55,-129 -17,-39 -32,-66 -44,-82 -12,-16 -24,-26 -37,-33 -12,-5 -31,-8 -57,-8 -14,1 -28,1 -40,1 0,82 0,164 1,245 0,38 1,65 4,80 3,15 11,27 20,36 9,9 27,17 53,23 0,17 0,34 0,50zm-86 -945c1,70 2,141 3,211 1,70 2,141 3,211 23,0 47,-1 71,-1 38,-1 68,-7 92,-18 25,-11 44,-27 58,-46 14,-20 25,-43 30,-69 6,-27 8,-56 7,-87 -2,-69 -19,-120 -49,-154 -30,-34 -75,-51 -135,-50 -41,1 -67,2 -80,3zm815 934c0,-17 0,-34 0,-50 18,-4 35,-9 46,-15 11,-5 20,-14 25,-24 7,-12 10,-25 11,-41 2,-17 2,-37 2,-61 0,-126 0,-252 -2,-377 -1,-126 -2,-252 -3,-378 -20,0 -39,0 -58,0 -28,1 -49,4 -65,12 -15,7 -28,18 -39,33 -11,15 -21,36 -28,61 -8,26 -14,50 -19,73 -32,0 -65,1 -97,1 -1,-44 -3,-89 -3,-133 0,-44 0,-89 0,-133 280,-2 559,-4 838,-5 0,44 0,89 0,133 0,44 1,88 2,133 -32,0 -65,0 -98,0 -10,-34 -16,-59 -22,-76 -6,-16 -12,-29 -19,-40 -6,-12 -13,-21 -20,-29 -7,-7 -15,-13 -23,-18 -8,-4 -18,-8 -30,-10 -12,-3 -28,-3 -47,-3 -18,0 -35,0 -51,0 1,125 2,251 3,377 1,126 1,251 1,377 0,27 1,47 2,61 1,14 4,25 8,34 3,8 8,15 14,20 5,6 13,11 23,15 9,4 22,7 39,10 0,17 0,33 0,50 -131,0 -261,2 -390,3z"/>
   <path class="fil1" d="M20569 12955c-1,27 0,48 1,62 1,15 3,26 6,35 4,9 8,16 14,22 6,6 13,11 23,15 9,5 23,9 39,12 0,17 0,35 0,52 -128,-4 -256,-7 -384,-8 0,-17 1,-34 1,-51 17,-5 31,-10 41,-16 11,-6 18,-15 24,-25 5,-11 9,-24 10,-41 2,-16 4,-38 5,-62 3,-112 8,-224 9,-335 1,-112 1,-224 2,-336 0,-25 -1,-45 -2,-62 -1,-16 -4,-30 -9,-40 -5,-11 -12,-19 -22,-26 -10,-7 -24,-12 -42,-18 0,-17 0,-34 0,-51 228,4 455,14 683,29 0,82 0,164 0,246 -33,-2 -65,-4 -97,-7 -16,-50 -29,-84 -40,-102 -10,-18 -23,-32 -38,-43 -16,-11 -41,-18 -77,-20 -46,-2 -91,-4 -136,-6 -1,66 -2,132 -2,198 -1,66 -1,132 -1,198 30,1 61,2 91,4 22,1 39,-3 51,-9 12,-7 22,-19 30,-37 8,-16 14,-41 20,-73 26,2 53,3 79,4 0,57 0,113 0,169 0,57 -1,113 -2,169 -27,-1 -53,-3 -80,-4 -5,-33 -11,-58 -19,-76 -8,-19 -17,-32 -29,-39 -12,-8 -28,-12 -50,-13 -30,-1 -60,-2 -91,-4 -1,48 -2,97 -4,145 -1,48 -2,96 -4,144zm892 -81c-102,-8 -203,-15 -304,-22 -8,23 -17,47 -25,71 -7,20 -13,40 -18,58 -4,19 -7,40 -7,61 -1,51 23,79 73,86 0,17 0,34 0,51 -102,-6 -204,-12 -305,-17 0,-17 0,-34 0,-51 18,-1 34,-8 47,-18 13,-11 26,-25 37,-45 11,-18 23,-46 37,-82 52,-140 104,-279 153,-418 49,-139 99,-277 148,-415 63,5 126,11 189,17 39,146 78,292 117,438 39,145 77,290 115,435 9,38 18,66 25,82 7,17 16,30 27,41 11,11 27,19 48,25 0,17 0,33 0,50 -131,-9 -263,-18 -394,-26 0,-17 0,-34 0,-51 25,-1 44,-7 56,-18 11,-11 18,-28 18,-49 0,-15 -1,-33 -4,-53 -3,-19 -8,-44 -15,-74 -6,-26 -12,-51 -18,-76zm-275 -111c85,7 170,13 256,19 -19,-73 -39,-146 -58,-219 -18,-74 -37,-147 -56,-221 -24,70 -47,140 -71,210 -23,71 -46,141 -71,211zm1089 484c-125,-6 -249,-13 -374,-21 0,-16 0,-33 0,-50 18,-4 32,-8 42,-13 10,-6 18,-13 23,-23 5,-10 8,-23 10,-39 1,-16 2,-36 3,-60 1,-109 3,-217 2,-326 -1,-109 -2,-218 -3,-326 0,-24 0,-44 -2,-60 -1,-16 -4,-30 -9,-40 -5,-11 -12,-19 -22,-27 -10,-7 -24,-13 -43,-20 0,-17 0,-33 0,-50 138,11 275,20 412,28 56,3 104,8 142,18 39,10 73,24 102,41 25,16 46,34 63,56 17,22 29,47 39,76 10,28 14,62 15,100 0,49 -7,91 -23,125 -15,35 -37,64 -64,86 -27,23 -65,43 -110,62 0,3 0,5 -1,8 36,17 65,40 88,67 23,28 44,63 62,105 15,34 30,69 45,104 19,47 39,82 59,106 20,24 43,39 70,46 0,16 0,33 0,50 -91,-5 -183,-9 -275,-13 -27,-41 -58,-102 -92,-183 -19,-43 -37,-87 -55,-131 -16,-39 -30,-67 -42,-83 -11,-17 -24,-28 -37,-35 -12,-7 -32,-11 -58,-12 -14,-1 -27,-1 -41,-2 0,81 0,162 -1,243 -1,37 1,64 4,79 3,15 9,28 19,37 9,10 27,19 52,27 0,17 0,33 0,50zm-78 -944c0,70 0,140 1,210 0,70 2,140 2,210 23,1 47,2 71,3 37,2 69,-2 93,-11 24,-10 44,-25 58,-43 14,-19 24,-42 29,-67 5,-26 7,-55 7,-86 -1,-68 -16,-120 -46,-155 -31,-36 -75,-55 -135,-58 -40,-2 -67,-3 -80,-3zm1750 53c-24,6 -41,13 -50,21 -9,8 -15,20 -18,34 -4,15 -5,41 -5,80 2,110 5,220 8,330 3,110 5,219 7,330 0,31 2,55 4,73 3,18 10,32 18,42 9,10 27,20 54,29 0,17 0,34 0,51 -122,-8 -243,-16 -365,-24 0,-17 0,-33 0,-50 20,-5 34,-9 43,-14 8,-4 14,-9 18,-16 5,-7 9,-18 11,-33 2,-15 2,-40 2,-74 0,-62 -1,-125 -2,-187 -2,-63 -3,-125 -4,-187 -2,-42 -2,-90 -2,-146 0,-56 1,-96 2,-119 -4,0 -9,-1 -14,-1 -6,20 -12,39 -18,59 -6,19 -16,53 -33,102 -29,90 -59,180 -89,270 -31,89 -62,179 -93,269 -42,-3 -84,-6 -126,-9 -34,-105 -67,-211 -102,-315 -34,-105 -70,-210 -105,-315 -12,-35 -24,-70 -33,-106 -4,0 -8,0 -12,0 2,42 5,87 7,137 1,49 4,103 5,160 0,58 1,116 2,175 0,58 1,116 1,174 0,37 1,64 5,78 3,15 10,28 20,38 10,10 27,20 52,28 0,17 0,34 0,50 -91,-6 -180,-11 -270,-17 0,-16 0,-33 0,-50 18,-4 32,-9 42,-14 10,-5 18,-13 23,-23 5,-10 9,-22 10,-38 1,-16 2,-36 2,-60 0,-109 -1,-218 -3,-328 -2,-109 -4,-218 -5,-328 0,-38 -2,-64 -5,-79 -3,-14 -9,-26 -18,-35 -9,-10 -27,-19 -54,-28 0,-17 0,-34 0,-50 118,5 235,10 352,17 33,106 66,212 101,318 34,106 70,213 104,319 33,-102 67,-204 100,-306 32,-102 67,-204 102,-306 110,7 221,15 331,24 0,16 0,33 0,50zm242 746c12,61 33,107 61,138 28,30 70,47 123,49 28,1 53,-3 75,-12 23,-10 41,-25 53,-47 13,-21 20,-49 19,-82 0,-31 -6,-58 -18,-81 -11,-23 -29,-45 -54,-67 -25,-22 -59,-46 -102,-71 -38,-22 -72,-44 -103,-67 -30,-23 -56,-48 -78,-75 -21,-27 -39,-56 -51,-87 -13,-31 -19,-66 -20,-104 -1,-62 12,-114 41,-155 28,-41 69,-71 123,-89 55,-18 117,-24 189,-17 42,3 82,10 120,18 38,8 82,20 131,36 1,71 2,142 3,213 -32,-2 -64,-4 -96,-7 -11,-39 -23,-71 -37,-95 -14,-24 -32,-43 -53,-56 -21,-12 -47,-20 -78,-22 -27,-3 -51,0 -72,8 -21,9 -38,22 -50,41 -11,19 -18,43 -17,71 0,29 6,55 17,77 12,22 31,44 56,66 26,22 63,47 111,76 59,35 106,70 140,102 35,32 61,66 78,102 17,36 27,78 28,125 1,60 -11,111 -38,155 -26,44 -64,78 -116,101 -52,23 -112,34 -180,32 -49,-2 -99,-7 -151,-15 -53,-8 -102,-19 -149,-32 -1,-78 -1,-156 -2,-234 32,2 64,4 97,5z"/>
   <path class="fil0" d="M3661 10148c978,572 2119,-61 2786,-996 470,50 839,-14 851,-476 199,244 129,431 -54,539 -175,104 -415,118 -698,75 -778,1102 -2068,1624 -2885,858z"/>
   <path class="fil0" d="M7374 7260c-190,430 -413,847 -643,1257 26,36 64,70 127,81 208,-388 434,-768 625,-1165 47,-97 -36,-156 -109,-173z"/>
   <path class="fil0" d="M6848 6723c-112,-140 -335,-208 -533,-175 -342,56 -411,361 -430,658 -19,300 58,611 278,892 -138,-300 -247,-796 -76,-1138 121,-243 297,-409 761,-237z"/>
   <path class="fil0" d="M8517 4734c-228,562 -456,1125 -684,1687 112,158 218,325 317,502 -59,-146 -125,-284 -208,-406 159,-333 282,-680 436,-1064 84,-208 111,-451 139,-719z"/>
   <path class="fil0" d="M9281 3973c551,406 156,1667 42,2489 -105,766 -388,1590 -300,2524 -143,-24 -151,-201 -145,-317 45,-761 193,-1512 297,-2267 73,-528 210,-1049 233,-1582 12,-285 11,-593 -127,-847z"/>
   <path class="fil0" d="M11872 6522c-377,-103 -639,34 -838,256 -332,372 -601,976 -569,1481 16,264 86,518 186,692 -214,-199 -297,-455 -304,-713 -14,-571 198,-1147 565,-1561 215,-242 642,-434 960,-155z"/>
   <path class="fil0" d="M12120 5897c88,81 232,182 335,434 -15,-164 -205,-388 -335,-434z"/>
   <path class="fil0" d="M13484 5945c169,95 173,290 148,444 -66,425 -280,1059 -401,1663 -66,326 -140,626 -79,915 -194,-107 -179,-372 -119,-660 103,-495 197,-999 330,-1486 108,-398 206,-763 121,-876z"/>
   <path class="fil0" d="M15373 5348c57,33 217,164 194,358 -51,2 -118,-26 -118,-26 0,0 9,-203 -76,-332z"/>
   <path class="fil0" d="M15767 6797c12,-283 -312,-266 -470,-261 -79,436 -215,828 -371,1327 -197,633 -551,1265 -1073,1674 -328,257 -804,313 -1243,141 339,285 922,298 1251,53 579,-430 925,-1045 1256,-1995 0,0 323,-1079 337,-1103 14,-24 266,2 313,164z"/>
   <path class="fil0" d="M18730 10249c-7,77 -14,155 -21,233 -1238,489 -2203,1526 -1977,2655 -323,-226 -120,-1044 155,-1441 444,-642 981,-1064 1843,-1447z"/>
   <path class="fil0" d="M9790 9424c37,42 75,85 113,127 -168,179 -415,323 -685,381 -336,74 -750,-54 -996,-300 268,155 528,197 798,166 292,-33 554,-211 770,-374z"/>
   <path class="fil0" d="M12147 9131c26,58 62,127 100,169 -66,88 -166,185 -279,276 -250,200 -542,366 -905,393 -309,23 -692,-59 -894,-260 219,125 636,143 916,98 359,-57 582,-205 808,-410 100,-91 189,-198 254,-266z"/>
   <path class="fil0" d="M17786 14020c174,-86 327,-176 490,-290 1047,11 2402,53 3669,117 1824,92 3465,230 3742,385 1,130 32,277 3,391 -30,122 -319,355 -505,410 111,-79 312,-249 314,-341 1,-75 -1,-115 -11,-207 -5,-50 -75,-74 -111,-84 -317,-82 -426,-71 -1431,-155 -1005,-85 -4107,-151 -6160,-226z"/>
  </g>
 </g>
</svg>
